<?xml version="1.0" encoding="utf-8"?>
<!-- Generator: Adobe Illustrator 22.1.0, SVG Export Plug-In . SVG Version: 6.00 Build 0)  -->
<svg version="1.1" id="Layer_1" xmlns="http://www.w3.org/2000/svg" xmlns:xlink="http://www.w3.org/1999/xlink" x="0px" y="0px"
	 viewBox="0 0 472.6 472.6" style="enable-background:new 0 0 472.6 472.6;" xml:space="preserve">
<style type="text/css">
	.st0{fill:#FFFFFF;stroke:#FFFFFF;stroke-width:11;stroke-miterlimit:10;}
</style>
<g>
	<g>
		<path class="st0" d="M472.6,205.8h-25.3c-12.8-38-48.7-65.5-90.9-65.5c-43.2,0-79.8,28.7-91.8,68.1c-7.6-5-17.3-8.1-28.2-8.1
			s-20.6,3.1-28.2,8.1c-12-39.4-48.6-68.1-91.8-68.1c-42.2,0-78.1,27.5-90.9,65.5H0v19.7h20.9c-0.4,3.6-0.7,7.2-0.7,10.8
			c0,52.9,43.1,96,96,96s96-43.1,96-96c0-0.6-0.1-1.1-0.1-1.6h0.1c0-7,9.9-14.7,24.1-14.7c14.2,0,24.1,7.8,24.1,14.7h0.1
			c0,0.5-0.1,1.1-0.1,1.6c0,52.9,43.1,96,96,96s96-43.1,96-96c0-3.7-0.3-7.3-0.7-10.8h20.9L472.6,205.8L472.6,205.8z M116.3,312.6
			c-42.1,0-76.3-34.2-76.3-76.3S74.2,160,116.3,160s76.3,34.2,76.3,76.3S158.3,312.6,116.3,312.6z M356.3,312.6
			c-42.1,0-76.3-34.2-76.3-76.3s34.2-76.3,76.3-76.3s76.3,34.2,76.3,76.3C432.6,278.4,398.4,312.6,356.3,312.6z"/>
	</g>
</g>
</svg>
